<svg width="49" height="49" viewBox="0 0 49 49" fill="none" xmlns="http://www.w3.org/2000/svg">
<g clip-path="url(#clip0_3_59)">
<path d="M26.0984 24.0202C25.5894 24.2398 25.0403 24.3531 24.4854 24.3531C23.9305 24.3531 23.3815 24.2398 22.8724 24.0202L3.31089 15.018C2.99324 14.8588 2.7263 14.6151 2.53979 14.3141C2.35328 14.0131 2.25453 13.6665 2.25453 13.313C2.25453 12.9595 2.35328 12.613 2.53979 12.312C2.7263 12.011 2.99324 11.7673 3.31089 11.6081L22.8724 2.53772C23.3815 2.3181 23.9305 2.20477 24.4854 2.20477C25.0403 2.20477 25.5894 2.3181 26.0984 2.53772L45.6599 11.5399C45.9776 11.6991 46.2445 11.9428 46.431 12.2438C46.6175 12.5448 46.7163 12.8914 46.7163 13.2448C46.7163 13.5983 46.6175 13.9449 46.431 14.2459C46.2445 14.5469 45.9776 14.7906 45.6599 14.9498L26.0984 24.0202Z" fill="#CE2425" stroke="#CE2425" stroke-width="3.40991" stroke-linecap="round" stroke-linejoin="round"/>
<path d="M46.7924 25.5547L25.8581 35.1365C25.411 35.3392 24.9253 35.444 24.4339 35.444C23.9425 35.444 23.4568 35.3392 23.0097 35.1365L2.17838 25.5547" stroke="#CE2425" stroke-width="3.40991" stroke-linecap="round" stroke-linejoin="round"/>
<path d="M46.7924 36.6368L25.8581 46.2187C25.411 46.4213 24.9253 46.5262 24.4339 46.5262C23.9425 46.5262 23.4568 46.4213 23.0097 46.2187L2.17838 36.6368" stroke="#CE2425" stroke-width="3.40991" stroke-linecap="round" stroke-linejoin="round"/>
</g>
<defs>
<clipPath id="clip0_3_59">
<rect width="48.0459" height="47.7388" fill="white" transform="translate(0.462452 0.491821)"/>
</clipPath>
</defs>
</svg>
