<svg xmlns="http://www.w3.org/2000/svg" width="56" height="56" viewBox="0 0 56 56" fill="none">
  <path d="M19.075 29.6188C18.1453 29.9797 17.0953 29.5859 16.636 28.7L8.1047 12.2719C7.10939 10.325 7.86408 7.95157 9.81095 6.95626C9.93127 6.90157 10.0406 6.84689 10.161 6.7922C12.3594 5.90626 14.7766 7.19689 15.3891 9.42814L15.4 9.46095L20.2453 27.3C20.4969 28.2516 19.9938 29.2578 19.075 29.6188Z" fill="#F98500"/>
  <path d="M18.6156 21.3391L16.1984 22.2906C15.75 22.4547 15.2469 22.2359 15.0609 21.7875C14.8859 21.3391 15.1047 20.825 15.5531 20.65L18.1453 19.6328L18.6156 21.3391Z" fill="#ADADAD"/>
  <path d="M19.5562 24.7625L17.4781 25.5391C17.0297 25.6922 16.5375 25.4844 16.3406 25.0359C16.1656 24.5875 16.3844 24.0734 16.8437 23.8984L19.0969 23.0563L19.5562 24.7625Z" fill="#ADADAD"/>
  <path d="M29.3672 13.5516C28.6344 13.0484 28.2625 12.1625 28.4266 11.2766C28.8313 9.24219 27.5188 7.2625 25.4735 6.84688C25.4516 6.84688 25.4188 6.83594 25.3969 6.83594C24.5547 6.69375 23.8547 6.09219 23.5922 5.27188C23.5266 5.075 23.45 4.87813 23.3625 4.69219C22.4328 2.83282 20.1797 2.07813 18.3203 3.00782C16.5594 3.88282 15.7719 5.97188 16.5156 7.7875C16.8985 8.72813 17.0844 9.58125 16.4391 10.4891C15.236 12.1844 15.6406 14.5359 17.336 15.7281C17.3469 15.7391 17.3688 15.75 17.3797 15.7609C18.1125 16.275 18.4625 17.1719 18.2875 18.0469C17.8938 20.0813 19.2281 22.0609 21.2735 22.4547C23.111 22.8047 24.9156 21.7656 25.5391 20.0047C27.3985 20.9344 29.6516 20.1688 30.5813 18.3203C31.4125 16.6469 30.8985 14.6234 29.3672 13.5516Z" fill="#598C44"/>
  <path d="M37.8985 16.5594C37.4063 15.8156 37.3953 14.8531 37.8766 14.0984C39.025 12.3703 38.5438 10.0297 36.8157 8.88126C36.7938 8.87032 36.7719 8.84845 36.75 8.83751C35.6782 8.15938 35.7547 7.19688 35.6672 6.0922C35.5141 4.02501 33.6985 2.47189 31.6313 2.62501C29.6735 2.77814 28.1532 4.40782 28.1532 6.37657C28.1532 7.39376 28 8.24688 27.0703 8.84845C25.3203 9.96407 24.8063 12.2938 25.9328 14.0438C25.9438 14.0547 25.9547 14.0766 25.9657 14.0875C26.4469 14.8422 26.4469 15.8047 25.9438 16.5484C24.8172 18.2875 25.3094 20.6172 27.0485 21.7547C28.6125 22.7719 30.6907 22.4875 31.9157 21.0875C33.2938 22.6406 35.6672 22.7938 37.2203 21.4266C38.6203 20.2016 38.9047 18.1234 37.8985 16.5594Z" fill="#5F9548"/>
  <path d="M43.75 27.125L33.25 23.625L39.0359 6.27813C39.7359 4.18907 41.8687 2.57032 44.0891 2.625C45.4672 2.65782 46.7578 2.92032 47.8406 3.79532C49.5906 5.19532 50.2797 7.53594 49.5687 9.65782L43.75 27.125Z" fill="#FFB531"/>
  <path d="M36.75 18.375V49.875H10.5V18.375L13.125 20.125L15.75 18.375L18.375 20.125L21 18.375L23.625 20.125L26.25 18.375L28.875 20.125L31.5 18.375L34.125 20.125L36.75 18.375Z" fill="#FFB531"/>
  <path d="M36.75 25.6266V49.875H10.5V44.5703C20.1359 41.3328 29.6844 35.4375 36.75 25.6266Z" fill="#FCAC1F"/>
  <path d="M47.25 18.375V49.875H36.75V18.375L39.375 20.125L42 18.375L44.625 20.125L47.25 18.375Z" fill="#F98500"/>
  <path d="M10.6641 53.375C14.5301 53.375 17.6641 50.241 17.6641 46.375C17.6641 42.509 14.5301 39.375 10.6641 39.375C6.79807 39.375 3.66406 42.509 3.66406 46.375C3.66406 50.241 6.79807 53.375 10.6641 53.375Z" fill="#CE2425"/>
  <path d="M25.375 35L26.25 36.75C25.1672 37.8328 24.7297 39.4078 25.1016 40.9062L25.375 42H21.875V40.6656C21.875 38.2703 23.2312 36.0719 25.375 35Z" fill="#5F9548"/>
  <path d="M20.2453 53.375C19.1406 53.375 18.1563 52.6531 17.8391 51.5922L15.8703 45.0188C15.3235 43.1922 16.5266 41.125 18.55 41.125C19.5344 41.125 20.4422 41.6391 20.9453 42.4812L22.75 45.5V50.8703C22.75 52.2484 21.6235 53.375 20.2453 53.375Z" fill="#FA9F0C"/>
  <path d="M27.0047 53.375C28.1094 53.375 29.0937 52.6531 29.4109 51.5922L31.3797 45.0188C31.9375 43.1703 30.7125 41.125 28.7 41.125C27.7156 41.125 26.8078 41.6391 26.3047 42.4812L24.5 45.5V50.8703C24.5 52.2484 25.6266 53.375 27.0047 53.375Z" fill="#FA9F0C"/>
  <path d="M23.625 41.125C25.0797 41.125 26.25 42.2953 26.25 43.75V50.75C26.25 52.2047 25.0797 53.375 23.625 53.375C22.1703 53.375 21 52.2047 21 50.75V43.75C21 42.2953 22.1703 41.125 23.625 41.125Z" fill="#FFB531"/>
  <path d="M48.3875 3.11719C46.7688 1.81563 44.5485 1.42188 42.4375 2.03438C40.3813 2.63594 38.8391 4.09063 38.2047 6.00469L34.6719 16.6141L34.2563 16.0016L32.7906 16.975V13.4422L35.2188 11.8234L34.2453 10.3688L32.7797 11.3422V7.32813H31.0297V11.3313L29.575 10.3578L28.6016 11.8125L31.0297 13.4313V16.9641L29.575 15.9906L28.6016 17.4453L29.9469 18.3422L28.8641 19.0641L26.7203 17.6422C26.6219 17.5766 26.5234 17.5328 26.4141 17.5109C26.4797 17.3469 26.5672 17.1828 26.6656 17.0297C27.3438 15.9906 27.3438 14.6563 26.6766 13.6063C26.0641 12.6766 26.0859 11.2875 26.7203 10.3578C26.9938 9.96407 28.1094 9.16563 28.4047 8.77188C28.9844 8.00626 29.05 7.13126 29.1156 6.36563C29.1594 5.76407 29.2031 5.23907 29.4656 4.83438C30.3078 3.48907 32.0906 3.08438 33.436 3.92657C33.7203 4.10157 33.9609 4.33126 34.1688 4.58282C34.6391 5.17344 34.6828 5.76407 34.7375 6.56251C34.7594 6.83594 34.7813 7.13126 34.8141 7.43751L36.5531 7.21876C36.5203 6.95626 36.4985 6.69376 36.4875 6.44219C36.4219 5.49063 36.3453 4.51719 35.5469 3.50001C33.961 1.48751 31.0516 1.14844 29.0391 2.72344C28.6234 3.05157 28.2625 3.44532 27.9781 3.89376C27.4969 4.65938 27.4313 5.49063 27.3656 6.21251C27.3547 6.37657 27.3438 6.52969 27.3219 6.68282C26.7859 6.32188 26.1734 6.07032 25.5281 5.95001C25.0031 5.86251 24.5656 5.49063 24.4016 4.98751C24.0188 3.79532 23.1875 2.81094 22.0719 2.24219C20.9781 1.66251 19.6984 1.55313 18.5172 1.93594C16.7781 2.51563 15.5094 4.14532 15.3563 6.01563C15.3016 6.72657 15.4766 7.35001 15.6516 7.90782C14.8313 6.56251 13.3984 5.70938 11.8234 5.61094L11.8563 1.72813L10.1063 1.71719L10.0844 4.24376L9.03438 1.55313L7.43751 2.22032L8.48751 4.91094L6.75938 3.07344L5.49063 4.26563L8.14844 7.10938C6.70469 8.59688 6.36563 10.8281 7.32813 12.6656L9.14376 16.1656L10.6969 15.3563L8.88126 11.8563C8.10469 10.3578 8.68438 8.50938 10.1828 7.73282C11.6813 6.95626 13.5297 7.53594 14.3063 9.03438C14.4047 9.23126 14.4813 9.42813 14.5469 9.64688L14.5797 9.75626L11.7578 10.8609L12.3922 12.4906L15.0391 11.4625V11.4734C14.875 12.0969 14.8313 12.7422 14.9406 13.3875L13.0375 14.1313L13.6719 15.7609L15.5531 15.0281C15.9906 15.7609 16.7453 16.4391 16.7453 16.4391L14.3063 17.3906L14.5906 18.1016L13.1359 19.075L10.9922 17.6531C10.5875 17.3797 10.0516 17.4891 9.77813 17.8938C9.67969 18.0359 9.63594 18.2109 9.63594 18.375V36.75H11.3859V20.0047L12.6547 20.8469C12.95 21.0438 13.3328 21.0438 13.6281 20.8469L15.7719 19.425L17.9156 20.8469C18.2109 21.0438 18.5938 21.0438 18.8891 20.8469L21.0328 19.425L23.1766 20.8469C23.4719 21.0438 23.8547 21.0438 24.15 20.8469L26.2938 19.425L28.4375 20.8469C28.7328 21.0438 29.1156 21.0438 29.4109 20.8469L31.5547 19.425L33.6985 20.8469C33.9938 21.0438 34.3766 21.0438 34.6719 20.8469L35.9406 20.0047V49H32.4406V50.75H47.3156C47.7969 50.75 48.1906 50.3563 48.1906 49.875V18.375C48.1906 18.1125 48.0703 17.8719 47.8735 17.7078L50.4656 9.94219C51.2203 7.47032 50.411 4.74688 48.3875 3.11719ZM25.2328 14.5906C25.3094 14.7109 25.3641 14.8422 25.3969 14.9844L24.7953 15.8703L23.4609 12.5891L24.6313 10.8609C24.325 12.1188 24.5219 13.5188 25.2328 14.5906ZM19.1297 18.5828C19.3594 17.6531 19.1734 16.6797 18.6375 15.8922C18.1234 15.1484 17.3031 14.6344 16.8875 13.825C16.6688 13.3984 16.5813 12.9063 16.6359 12.425C16.7672 11.3531 17.5766 10.4563 17.6969 9.38438C17.7844 8.59688 17.4672 7.83126 17.3031 7.05469C16.9203 5.33751 18.0031 3.59844 19.8516 3.51094C20.7484 3.47813 21.6016 3.86094 22.1703 4.55001C22.6734 5.17344 22.9031 5.99376 23.4063 6.62813C23.7781 7.09844 24.2813 7.43751 24.85 7.60157C25.4078 7.76563 26.0641 7.78751 26.4359 8.23594C25.7906 8.69532 25.2656 9.29688 24.9047 10.0078L23.6578 9.17657L22.6734 10.5984L21.1641 6.91251L19.5563 7.56876L21.0547 11.2656L19.3484 10.9375L18.9984 12.6438L21.8094 13.2781L23.1766 16.4938L21.4703 16.1656L21.2625 17.1938C21.2516 17.2047 19.5781 18.2547 19.1297 18.5828ZM22.1703 18.1016L23.975 18.4734L24.0953 18.7688L23.625 19.075L22.1703 18.1016ZM33.4578 18.6266L34.136 18.1672L33.8844 18.9109L33.4578 18.6266ZM37.625 20.0047L38.8938 20.8469C39.1891 21.0438 39.5719 21.0438 39.8672 20.8469L41.136 20.0047V44.2531L37.636 47.7531V20.0047H37.625ZM46.375 20.0047V47.7531L42.875 44.2531V20.0047L44.1438 20.8469C44.4391 21.0438 44.8219 21.0438 45.1172 20.8469L46.375 20.0047ZM42 45.8609L45.1391 49H38.861L42 45.8609ZM48.7375 9.38438L45.7625 18.3094L44.625 19.0641L42.4813 17.6422C42.186 17.4453 41.8031 17.4453 41.5078 17.6422L39.3641 19.0641C39.3641 19.0641 37.1766 17.6094 37.1547 17.5984C36.8703 17.4453 36.5203 17.4672 36.2578 17.6422L36.1266 17.7297L39.8563 6.55157C40.3156 5.18438 41.4313 4.15626 42.9297 3.70782C44.4828 3.24844 46.1125 3.53282 47.2938 4.47344C48.7485 5.65469 49.3281 7.61251 48.7375 9.38438Z" fill="black"/>
  <path d="M40.9649 8.77573L46.2169 7.90217L46.5039 9.62767L41.2519 10.5012L40.9649 8.77573Z" fill="black"/>
  <path d="M39.2134 14.023L44.4654 13.1494L44.7524 14.8749L39.5004 15.7485L39.2134 14.023Z" fill="black"/>
  <path d="M28.711 40.25C27.7485 40.2391 26.8188 40.6219 26.1406 41.3109C26.1297 41.3 26.1188 41.2891 26.1078 41.2672L25.9656 40.6875C25.9656 40.6766 25.9656 40.6766 25.9547 40.6656C25.6156 39.4734 26.2938 37.9641 26.8844 37.3734C27.1469 37.1109 27.2125 36.6953 27.0485 36.3672L26.1735 34.6172C25.9547 34.1797 25.4297 34.0047 25.0031 34.2234C22.5531 35.4375 21.011 37.9422 21.0219 40.6656V41.1359C20.8141 40.9828 20.5844 40.8406 20.3547 40.7094C18.6594 39.8016 16.461 40.3703 15.4547 41.9672C14.875 42.8969 14.7219 44.1547 15.05 45.2594L16.1875 49.0547C14.6781 52.0844 11.0031 53.3203 7.97345 51.8219C4.97657 50.3344 3.7297 46.7141 5.17345 43.6953C5.19532 43.6516 5.2172 43.6078 5.23907 43.5641L5.27189 46.5391L7.02189 46.5172L6.9672 42.875L10.4563 43.0391L10.5438 41.2891L7.50314 41.1469C8.41095 40.5891 9.46095 40.2828 10.5219 40.25C11.7906 40.2172 13.0375 40.5781 14.0875 41.2891L15.0609 39.8344C13.0922 38.5109 10.6313 38.15 8.3672 38.8391L8.73907 37.9641L7.13126 37.275L5.92814 40.075C5.84064 40.1406 5.7422 40.2172 5.6547 40.2938L2.98595 37.625L1.75001 38.8609L4.44064 41.5516C4.38595 41.6281 4.33126 41.7047 4.27657 41.7813L1.41095 43.0063L2.10001 44.6141L3.10626 44.1766C1.8922 48.3547 4.29845 52.7188 8.47657 53.9328C11.2328 54.7313 14.2078 53.9656 16.2422 51.9313C16.45 51.7234 16.6469 51.4938 16.8328 51.2641L17.0078 51.8328C17.5438 53.6266 19.425 54.6328 21.2188 54.0969C21.4703 54.0203 21.7 53.9219 21.9297 53.7906C22.9906 54.3813 24.2813 54.3813 25.3422 53.7906C26.961 54.7203 29.0281 54.1516 29.9578 52.5328C30.0891 52.3141 30.1875 52.0734 30.2641 51.8219L32.2328 45.2484C32.3531 44.8109 32.4078 44.3516 32.386 43.8922C32.375 41.8906 30.7344 40.25 28.711 40.25ZM25.0141 36.2359L25.211 36.6297C24.5219 37.5813 24.0297 38.9703 24.1172 40.2828C23.8656 40.2391 23.1766 40.2063 22.761 40.3594C22.8485 38.7078 23.6797 37.1984 25.0141 36.2359ZM18.6813 51.3406L16.7125 44.7672C16.5266 44.1438 16.6141 43.4 16.9203 42.9078C17.4235 42.0984 18.6375 41.7922 19.5125 42.2625C19.9281 42.4813 20.0922 42.6344 20.2563 42.8422C20.1797 43.1375 20.136 43.4438 20.136 43.75V50.75C20.136 51.3516 20.2891 51.9422 20.5844 52.4672C19.7422 52.6422 18.9219 52.15 18.6813 51.3406ZM21.875 50.75V43.75C21.875 42.7875 22.6625 42 23.625 42C24.5875 42 25.375 42.7875 25.375 43.75V50.75C25.375 51.7125 24.5875 52.5 23.625 52.5C22.6625 52.5 21.875 51.7125 21.875 50.75ZM30.5484 44.7672L28.5797 51.3406C28.3391 52.15 27.5078 52.6422 26.6766 52.4672C26.9719 51.9422 27.125 51.3516 27.125 50.75V43.75C27.125 43.4766 27.0922 43.2141 27.0266 42.9516C27.2563 42.6016 27.7813 42 28.7 42C29.761 42 30.6141 42.8641 30.6141 43.9141C30.636 44.1984 30.6141 44.4938 30.5484 44.7672Z" fill="black"/>
</svg>