<svg width="54" height="62" viewBox="0 0 54 62" fill="none" xmlns="http://www.w3.org/2000/svg">
<path d="M16.6974 6.64182C17.9135 8.00566 18.6367 9.84617 18.7224 11.7956L24.8986 4.74307C25.1107 4.47002 25.3707 4.25154 25.6616 4.10194C25.9524 3.95234 26.2674 3.875 26.5861 3.875C26.9048 3.875 27.2199 3.95234 27.5107 4.10194C27.8015 4.25154 28.0615 4.47002 28.2736 4.74307L33.2686 10.7106C32.5592 11.1056 31.9096 11.6289 31.3449 12.2606C30.1428 13.7784 29.4958 15.7694 29.5382 17.8203C29.5806 19.8713 30.3091 21.8248 31.5726 23.2754C32.836 24.7261 34.5374 25.5625 36.3238 25.6112C38.1101 25.6599 39.8441 24.917 41.1661 23.5368C41.7163 22.8884 42.1721 22.1426 42.5161 21.3281L47.7811 27.2956C48.0189 27.5391 48.2092 27.8376 48.3395 28.1715C48.4698 28.5054 48.5372 28.8672 48.5372 29.2331C48.5372 29.599 48.4698 29.9607 48.3395 30.2946C48.2092 30.6285 48.0189 30.927 47.7811 31.1706L41.6386 38.1068C42.969 38.1992 44.2479 38.7308 45.3214 39.6377C46.395 40.5446 47.2175 41.7883 47.6901 43.2191C48.1628 44.65 48.2654 46.2071 47.9857 47.7033C47.7059 49.1995 47.0558 50.5711 46.1133 51.6532C45.1708 52.7352 43.9762 53.4817 42.6731 53.8029C41.3699 54.1241 40.0137 54.0063 38.7675 53.4636C37.5213 52.9209 36.4381 51.9765 35.6482 50.744C34.8583 49.5114 34.3953 48.0431 34.3149 46.5156L28.1386 53.5681C27.9265 53.8411 27.6665 54.0596 27.3757 54.2092C27.0849 54.3588 26.7698 54.4361 26.4511 54.4361C26.1324 54.4361 25.8174 54.3588 25.5266 54.2092C25.2357 54.0596 24.9757 53.8411 24.7636 53.5681L19.7686 47.6006C20.4781 47.2056 21.1276 46.6822 21.6924 46.0506C22.9948 44.545 23.7229 42.507 23.7165 40.385C23.7102 38.2631 22.97 36.2309 21.6586 34.7356C20.3473 33.2402 18.5723 32.4043 16.7241 32.4115C14.876 32.4188 13.106 33.2687 11.8036 34.7743C11.2535 35.4228 10.7976 36.1685 10.4536 36.9831L5.25612 31.0156C5.01831 30.772 4.82801 30.4735 4.69771 30.1396C4.56742 29.8057 4.50006 29.444 4.50006 29.0781C4.50006 28.7122 4.56742 28.3504 4.69771 28.0165C4.82801 27.6826 5.01831 27.3841 5.25612 27.1406L11.3986 20.2043C9.70075 20.106 8.09773 19.2757 6.90987 17.8793C5.61197 16.3891 4.88281 14.368 4.88281 12.2606C4.88281 10.1531 5.61197 8.132 6.90987 6.64182C8.20777 5.15163 9.96811 4.31446 11.8036 4.31446C13.6391 4.31446 15.3995 5.15163 16.6974 6.64182Z" fill="#CE2425" stroke="#CE2425" stroke-width="3.40991" stroke-linecap="round" stroke-linejoin="round"/>
</svg>
